<svg id="Layer_1" data-name="Layer 1" xmlns="http://www.w3.org/2000/svg" viewBox="0 0 733.04 268.92"><defs><style>.cls-1,.cls-2{stroke:#000;stroke-linecap:round;stroke-linejoin:round;}.cls-1{stroke-width:0.3px;}.cls-2{stroke-width:0.25px;}</style></defs><title>vinyl</title><polygon class="cls-1" points="183.35 18.26 189.51 18.26 189.51 85.56 177.2 85.56 177.2 18.26 183.35 18.26"/><polygon class="cls-1" points="549.81 18.26 543.66 18.26 543.66 85.56 555.97 85.56 555.97 18.26 549.81 18.26"/><polygon class="cls-1" points="366.58 18.26 360.43 18.26 360.43 85.56 372.74 85.56 372.74 18.26 366.58 18.26"/><polygon class="cls-2" points="0.13 268.8 6.69 262.64 18.8 262.64 12.23 268.8 0.13 268.8"/><rect class="cls-2" x="360.43" y="262.64" width="12.31" height="6.16"/><polygon class="cls-1" points="18.8 262.64 189.51 97.67 177.2 97.67 6.69 262.64 18.8 262.64"/><rect class="cls-1" x="360.43" y="97.67" width="12.31" height="164.97"/><path class="cls-1" d="M493.84,463.27" transform="translate(-133.42 -365.6)"/><polygon class="cls-1" points="714.37 262.64 543.66 97.67 555.97 97.67 726.48 262.64 714.37 262.64"/><polyline points="733.04 0 580.38 18.26 152.78 18.26 0.13 0"/><rect x="30.7" y="85.56" width="671.77" height="12.11"/></svg>